<?xml version="1.0" encoding="UTF-8" standalone="no"?>
<!-- Created with Inkscape (http://www.inkscape.org/) -->

<svg
   xmlns:dc="http://purl.org/dc/elements/1.1/"
   xmlns:cc="http://creativecommons.org/ns#"
   xmlns:rdf="http://www.w3.org/1999/02/22-rdf-syntax-ns#"
   xmlns:svg="http://www.w3.org/2000/svg"
   xmlns="http://www.w3.org/2000/svg"
   xmlns:sodipodi="http://sodipodi.sourceforge.net/DTD/sodipodi-0.dtd"
   xmlns:inkscape="http://www.inkscape.org/namespaces/inkscape"
   width="59.868389mm"
   height="59.868576mm"
   viewBox="0 0 59.868389 59.868576"
   version="1.1"
   id="svg5094"
   inkscape:version="0.92.3 (unknown)"
   sodipodi:docname="BT-tmp.svg">
  <defs
     id="defs5088" />
  <sodipodi:namedview
     id="base"
     pagecolor="#ffffff"
     bordercolor="#666666"
     borderopacity="1.0"
     inkscape:pageopacity="0.0"
     inkscape:pageshadow="2"
     inkscape:zoom="0.35"
     inkscape:cx="308.85115"
     inkscape:cy="115.99464"
     inkscape:document-units="mm"
     inkscape:current-layer="layer1"
     showgrid="false"
     inkscape:window-width="1366"
     inkscape:window-height="725"
     inkscape:window-x="0"
     inkscape:window-y="0"
     inkscape:window-maximized="1" />
  <metadata
     id="metadata5091">
    <rdf:RDF>
      <cc:Work
         rdf:about="">
        <dc:format>image/svg+xml</dc:format>
        <dc:type
           rdf:resource="http://purl.org/dc/dcmitype/StillImage" />
        <dc:title></dc:title>
      </cc:Work>
    </rdf:RDF>
  </metadata>
  <g
     inkscape:label="Layer 1"
     inkscape:groupmode="layer"
     id="layer1"
     transform="translate(116.1127,31.53547)">
    <g
       transform="matrix(8,0,0,8,4886.4253,503.21577)"
       id="g5073">
      <rect
         style="opacity:1;fill:#092f43;fill-opacity:1;fill-rule:nonzero;stroke:none;stroke-width:7.63627243;stroke-linecap:square;stroke-linejoin:miter;stroke-miterlimit:4;stroke-dasharray:none;stroke-opacity:1;paint-order:markers stroke fill"
         id="rect5065"
         width="5.2916665"
         height="5.2916665"
         x="-486.78601"
         y="392.25446"
         transform="rotate(45)" />
      <path
         style="fill:#e67c44;fill-opacity:1;stroke:none;stroke-width:0.26458332px;stroke-linecap:butt;stroke-linejoin:miter;stroke-opacity:1"
         d="m -621.57549,-66.843905 4e-5,7.483572 -3.7418,-3.741796 z"
         id="path5067"
         inkscape:connector-curvature="0" />
      <path
         inkscape:connector-curvature="0"
         id="path5069"
         style="font-style:normal;font-variant:normal;font-weight:normal;font-stretch:normal;font-size:medium;line-height:1.25;font-family:'Fette Kanzlei OsF';-inkscape-font-specification:'Fette Kanzlei OsF';letter-spacing:0px;word-spacing:0px;fill:#092f43;fill-opacity:1;stroke:none;stroke-width:0.07242738"
         d="m -621.80636,-62.904586 q 0,0.08651 -0.0352,0.17035 -0.0706,0.170349 -0.25149,0.297438 -0.10822,0.073 -0.21636,0.110866 -0.14596,0.05137 -0.31362,0.05137 -0.28125,0 -0.45971,-0.127082 -0.0594,-0.04056 -0.13782,-0.116251 -0.0758,-0.0757 -0.10821,-0.100032 -0.0649,-0.04057 -0.13782,-0.04057 -0.0435,0 -0.092,0.02168 -0.12431,0.0541 -0.16756,0.200094 -0.0138,0.04596 -0.0138,0.09192 0,0.132495 0.11366,0.235244 0.0156,0.01626 0.0646,0.0541 0.15944,0.100031 0.4948,0.100031 0.32988,0 0.4759,-0.073 0.092,-0.04597 0.18113,-0.15954 l 0.0269,0.02433 q -0.0568,0.08381 -0.13246,0.140623 -0.12178,0.09462 -0.24608,0.135213 -0.12431,0.04056 -0.28658,0.04056 -0.21093,0 -0.39481,-0.08111 -0.13505,-0.06218 -0.2109,-0.140624 -0.12456,-0.129815 -0.12456,-0.275805 0,-0.1974 0.19206,-0.362329 0.1811,-0.156827 0.42183,-0.156827 0.22983,0 0.37585,0.197401 0.0219,0.02977 0.11087,0.202787 0.0568,0.108141 0.15665,0.140606 v -1.019391 q -0.0376,-0.0081 -0.0516,-0.02704 -0.005,-0.0081 -0.005,-0.02433 10e-4,-0.01077 0.006,-0.02171 0.0138,-0.02704 0.0459,-0.02704 v -0.554311 q -0.0298,0.02704 -0.0596,0.06218 -0.0677,0.08381 -0.0677,0.132497 0,-0.01883 0.0127,0.05948 0.006,0.05948 0.006,0.12165 0,0.292029 -0.15666,0.470488 -0.10277,0.116252 -0.24876,0.173048 -0.10543,0.04329 -0.19206,0.04329 -0.21086,0 -0.31904,-0.170349 -0.0516,-0.0811 -0.0485,-0.159542 0,-0.02704 0.006,-0.07032 0.0487,-0.164955 0.21633,-0.164955 0.0973,0 0.16238,0.06218 0.0677,0.06221 0.0677,0.159542 0,0.03786 -0.0156,0.07844 -0.054,0.135213 -0.19468,0.135213 -0.0407,0 -0.11633,-0.02704 0.0127,0.01348 0.0326,0.04326 0.0729,0.0784 0.2028,0.0784 0.12694,0 0.2135,-0.09192 0.10821,-0.110866 0.10821,-0.324475 0,-0.143321 -0.0435,-0.237948 -0.0758,-0.162222 -0.23794,-0.197377 -0.0376,-0.0081 -0.10011,-0.01077 -0.0407,0 -0.11062,0.0025 -0.0786,0.0025 -0.10011,0.0025 -0.29204,0 -0.43534,-0.164955 -0.0839,-0.09735 -0.0839,-0.200096 0,-0.10543 0.0839,-0.164954 l 0.0243,0.02171 q -0.0622,0.05678 -0.0622,0.102756 0,0.0784 0.0807,0.100031 0.001,0 0.0196,0 0.0156,0.0025 0.0295,0.0025 0.0729,0 0.1648,-0.02975 0.081,-0.02704 0.15977,-0.0541 0.15945,-0.05137 0.29473,-0.05137 0.28933,0 0.46506,0.243359 0.0407,0.05678 0.0895,0.156827 0.0431,-0.07301 0.0646,-0.100057 0.035,-0.04596 0.12177,-0.118976 0.0404,-0.03515 0.12694,-0.108141 0.0326,-0.02704 0.092,-0.08111 0.0222,-0.02433 0.0459,-0.06218 0.005,0.01626 0.0243,0.05948 0.006,0.01077 0.0973,0.08924 0.0807,0.07032 0.13782,0.170351 0.0646,0.110866 0.0625,0.208196 -9.9e-4,0.127083 -0.0758,0.221725 -0.092,0.118976 -0.29475,0.183868 0.0945,0.02707 0.17034,0.06759 0.29472,0.156827 0.29472,0.429927 z m -0.35964,-0.72466 q -10e-4,-0.07032 -0.0435,-0.118951 -0.0568,-0.09192 -0.27852,-0.243358 v 0.554309 l 0.1598,0.02168 q 0.0243,-0.01077 0.0646,-0.03785 0.092,-0.06489 0.0973,-0.175765 z m -0.0568,0.71655 q 0,-0.213606 -0.0513,-0.351515 -0.0326,-0.08923 -0.0703,-0.116251 l -0.14059,0.03245 v 1.024797 q 0.0516,-0.0056 0.0947,-0.02704 0.0973,-0.0514 0.13246,-0.186583 0.035,-0.137891 0.035,-0.375849 z" />
      <path
         inkscape:connector-curvature="0"
         id="path5071"
         style="font-style:normal;font-variant:normal;font-weight:normal;font-stretch:normal;font-size:medium;line-height:1.25;font-family:FreeMono;-inkscape-font-specification:FreeMono;letter-spacing:0px;word-spacing:0px;fill:#e67c43;fill-opacity:1;stroke:none;stroke-width:0.09103632"
         d="m -620.45561,-62.284749 h 0.35686 q 0.0918,0 0.0918,0.06798 0,0.07138 -0.0918,0.07138 h -0.85306 q -0.0918,0 -0.0918,-0.07138 0,-0.06798 0.0918,-0.06798 h 0.35686 v -1.634772 h -0.56758 v 0.24812 q 0,0.09176 -0.0714,0.09176 -0.0678,0 -0.0678,-0.09176 v -0.38745 h 1.5498 v 0.38745 q 0,0.09176 -0.068,0.09176 -0.0306,0 -0.051,-0.02368 -0.018,-0.02724 -0.018,-0.06798 v -0.24812 h -0.5642 z" />
    </g>
  </g>
</svg>
