<?xml version="1.0" encoding="UTF-8" standalone="no"?>
<!-- Created with Inkscape (http://www.inkscape.org/) -->

<svg
   xmlns:dc="http://purl.org/dc/elements/1.1/"
   xmlns:cc="http://creativecommons.org/ns#"
   xmlns:rdf="http://www.w3.org/1999/02/22-rdf-syntax-ns#"
   xmlns:svg="http://www.w3.org/2000/svg"
   xmlns="http://www.w3.org/2000/svg"
   xmlns:sodipodi="http://sodipodi.sourceforge.net/DTD/sodipodi-0.dtd"
   xmlns:inkscape="http://www.inkscape.org/namespaces/inkscape"
   width="59.868389mm"
   height="59.868576mm"
   viewBox="0 0 59.868389 59.868576"
   version="1.1"
   id="svg5094"
   inkscape:version="0.92.4 (unknown)"
   sodipodi:docname="logo.svg">
  <defs
     id="defs5088" />
  <sodipodi:namedview
     id="base"
     pagecolor="#ffffff"
     bordercolor="#666666"
     borderopacity="1.0"
     inkscape:pageopacity="0.0"
     inkscape:pageshadow="2"
     inkscape:zoom="0.35"
     inkscape:cx="-184.00599"
     inkscape:cy="104.56607"
     inkscape:document-units="mm"
     inkscape:current-layer="layer1"
     showgrid="false"
     inkscape:window-width="1366"
     inkscape:window-height="725"
     inkscape:window-x="0"
     inkscape:window-y="0"
     inkscape:window-maximized="1" />
  <metadata
     id="metadata5091">
    <rdf:RDF>
      <cc:Work
         rdf:about="">
        <dc:format>image/svg+xml</dc:format>
        <dc:type
           rdf:resource="http://purl.org/dc/dcmitype/StillImage" />
        <dc:title />
      </cc:Work>
    </rdf:RDF>
  </metadata>
  <g
     inkscape:label="Layer 1"
     inkscape:groupmode="layer"
     id="layer1"
     transform="translate(116.1127,31.53547)">
    <rect
       transform="rotate(45)"
       y="38.638435"
       x="-83.236305"
       height="42.333332"
       width="42.333332"
       id="rect5065"
       style="opacity:1;fill:#092f43;fill-opacity:1;fill-rule:nonzero;stroke:none;stroke-width:61.09017944;stroke-linecap:square;stroke-linejoin:miter;stroke-miterlimit:4;stroke-dasharray:none;stroke-opacity:1;paint-order:markers stroke fill" />
    <path
       inkscape:connector-curvature="0"
       id="path5067"
       d="m -86.17862,-31.53547 3.2e-4,59.868576 -29.9344,-29.934368 z"
       style="fill:#e67c44;fill-opacity:1;stroke:none;stroke-width:2.11666656px;stroke-linecap:butt;stroke-linejoin:miter;stroke-opacity:1" />
    <path
       d="m -88.02558,-0.020918 q 0,0.69208 -0.2816,1.3628 -0.5648,1.362792 -2.01192,2.379504 -0.86576,0.584 -1.73088,0.886928 -1.16768,0.41096 -2.50896,0.41096 -2.25,0 -3.67768,-1.016656 -0.4752,-0.32448 -1.10256,-0.930008 -0.6064,-0.6056 -0.86568,-0.800256 -0.5192,-0.32456 -1.10256,-0.32456 -0.348,0 -0.736,0.17344 -0.99448,0.4328 -1.34048,1.600752 -0.1104,0.36768 -0.1104,0.73536 0,1.05996 0.90928,1.881952 0.1248,0.13008 0.5168,0.4328 1.27552,0.800248 3.9584,0.800248 2.63904,0 3.8072,-0.584 0.736,-0.36776 1.44904,-1.27632 l 0.2152,0.19464 q -0.4544,0.67048 -1.05968,1.124984 -0.97424,0.75696 -1.96864,1.081704 -0.99448,0.32448 -2.29264,0.32448 -1.68744,0 -3.15848,-0.64888 -1.0804,-0.49744 -1.6872,-1.124992 -0.99648,-1.03852 -0.99648,-2.20644 0,-1.5792 1.53648,-2.898632 1.4488,-1.254616 3.37464,-1.254616 1.83864,0 3.0068,1.579208 0.1752,0.23816 0.88696,1.622296 0.4544,0.865128 1.2532,1.124848 v -8.155128 q -0.3008,-0.0648 -0.4128,-0.21632 -0.04,-0.0648 -0.04,-0.19464 0.008,-0.08616 0.048,-0.17368 0.1104,-0.21632 0.3672,-0.21632 V -8.75995 q -0.2384,0.21632 -0.4768,0.49744 -0.5416,0.67048 -0.5416,1.059976 0,-0.15064 0.1016,0.47584 0.048,0.47584 0.048,0.9732 0,2.336232 -1.25328,3.763904 -0.82216,0.930016 -1.99008,1.384384 -0.84344,0.34632 -1.53648,0.34632 -1.68688,0 -2.55232,-1.362792 -0.4128,-0.6488 -0.388,-1.276336 0,-0.21632 0.048,-0.56256 0.3896,-1.31964 1.73064,-1.31964 0.7784,0 1.29904,0.49744 0.5416,0.49768 0.5416,1.276336 0,0.30288 -0.1248,0.62752 -0.432,1.081704 -1.55744,1.081704 -0.3256,0 -0.93064,-0.21632 0.1016,0.10784 0.2608,0.34608 0.5832,0.6272 1.6224,0.6272 1.01552,0 1.708,-0.73536 0.86568,-0.886928 0.86568,-2.5958 0,-1.146568 -0.348,-1.903584 -0.6064,-1.297776 -1.90352,-1.579016 -0.3008,-0.0648 -0.80088,-0.08616 -0.3256,0 -0.88496,0.02 -0.6288,0.02 -0.80088,0.02 -2.33632,0 -3.48272,-1.31964 -0.6712,-0.7788 -0.6712,-1.600768 0,-0.84344 0.6712,-1.319632 l 0.1944,0.17368 q -0.4976,0.45424 -0.4976,0.822048 0,0.6272 0.6456,0.800248 0.008,0 0.1568,0 0.1248,0.02 0.236,0.02 0.5832,0 1.3184,-0.238 0.648,-0.21632 1.27816,-0.4328 1.2756,-0.41096 2.35784,-0.41096 2.31464,0 3.72048,1.946872 0.3256,0.45424 0.716,1.254616 0.3448,-0.58408 0.5168,-0.800456 0.28,-0.36768 0.97416,-0.951808 0.3232,-0.2812 1.01552,-0.865128 0.2608,-0.21632 0.736,-0.64888 0.1776,-0.19464 0.3672,-0.49744 0.04,0.13008 0.1944,0.47584 0.048,0.08616 0.7784,0.71392 0.6456,0.56256 1.10256,1.362808 0.5168,0.886928 0.5,1.665568 -0.0079,1.016664 -0.6064,1.7738 -0.736,0.951808 -2.358,1.470944 0.756,0.21656 1.36272,0.54072 2.35776,1.254616 2.35776,3.439416 z m -2.87712,-5.79728 q -0.008,-0.56256 -0.348,-0.951608 -0.4544,-0.73536 -2.22816,-1.946864 v 4.434472 l 1.2784,0.17344 q 0.1944,-0.08616 0.5168,-0.3028 0.736,-0.51912 0.7784,-1.40612 z m -0.4544,5.7324 q 0,-1.708848 -0.4104,-2.81212 -0.2608,-0.71384 -0.5624,-0.930008 l -1.12472,0.2596 V 4.63005 q 0.4128,-0.0448 0.7576,-0.21632 0.7784,-0.4112 1.05968,-1.492664 0.28,-1.103128 0.28,-3.006792 z"
       style="font-style:normal;font-variant:normal;font-weight:normal;font-stretch:normal;font-size:medium;line-height:1.25;font-family:'Fette Kanzlei OsF';-inkscape-font-specification:'Fette Kanzlei OsF';letter-spacing:0px;word-spacing:0px;fill:#092f43;fill-opacity:1;stroke:none;stroke-width:0.57941902"
       id="path5069"
       inkscape:connector-curvature="0" />
    <path
       d="m -77.21958,4.937778 h 2.85488 q 0.7344,0 0.7344,0.54384 0,0.57104 -0.7344,0.57104 h -6.82448 q -0.7344,0 -0.7344,-0.57104 0,-0.54384 0.7344,-0.54384 h 2.85488 V -8.140398 h -4.54064 v 1.98496 q 0,0.73408 -0.5712,0.73408 -0.5424,0 -0.5424,-0.73408 v -3.0996 h 12.3984 v 3.0996 q 0,0.73408 -0.544,0.73408 -0.2448,0 -0.408,-0.18944 -0.144,-0.21792 -0.144,-0.54384 v -1.98496 h -4.5136 z"
       style="font-style:normal;font-variant:normal;font-weight:normal;font-stretch:normal;font-size:medium;line-height:1.25;font-family:FreeMono;-inkscape-font-specification:FreeMono;letter-spacing:0px;word-spacing:0px;fill:#e67c43;fill-opacity:1;stroke:none;stroke-width:0.72829056"
       id="path5071"
       inkscape:connector-curvature="0" />
  </g>
</svg>
